REM DIRINDEX 1\2\6,1\2\7,1\2\8,1\2\9,1\3\10,1\3\11,1\4\12,1\4\13,1\4\14,1\5\15,1\5\16,1\5\17
REM DIRNAME folder01,folder02,folder03,folder04,folder05,folder06,folder07,folder08,folder09,folder10,folder11,folder12,folder13,folder14,folder15,folder16,folder17
TITLE ""
FILE "1900_3_096 sec17_1601_0617.mp3" MP3
  TRACK 01 AUDIO
    TITLE "0:"
    INDEX 01 00:00:00
  TRACK 02 AUDIO
    TITLE "15:cjc020_9185"
    INDEX 01 00:00:15
  TRACK 03 AUDIO
    TITLE "0:"
    INDEX 01 00:02:04
  TRACK 04 AUDIO
    TITLE "17:cjc020_9186"
    INDEX 01 00:03:08
  TRACK 05 AUDIO
    TITLE "0:"
    INDEX 01 00:04:46
  TRACK 06 AUDIO
    TITLE "16:cjc020_9187"
    INDEX 01 00:04:50
  TRACK 07 AUDIO
    TITLE "0:"
    INDEX 01 00:05:57
  TRACK 08 AUDIO
    TITLE "17:cjc020_9188"
    INDEX 01 00:06:39
  TRACK 09 AUDIO
    TITLE "0:"
    INDEX 01 00:08:21
  TRACK 10 AUDIO
    TITLE "16:cjc020_9189"
    INDEX 01 00:08:30
  TRACK 11 AUDIO
    TITLE "0:"
    INDEX 01 00:09:38
  TRACK 12 AUDIO
    TITLE "17:cjc020_9190"
    INDEX 01 00:10:23
  TRACK 13 AUDIO
    TITLE "0:"
    INDEX 01 00:11:40
  TRACK 14 AUDIO
    TITLE "16:cjc020_9191"
    INDEX 01 00:11:50
  TRACK 15 AUDIO
    TITLE "0:"
    INDEX 01 00:12:48
  TRACK 16 AUDIO
    TITLE "17:cjc020_9192"
    INDEX 01 00:13:33
  TRACK 17 AUDIO
    TITLE "0:"
    INDEX 01 00:14:56
  TRACK 18 AUDIO
    TITLE "16:cjc020_9193"
    INDEX 01 00:14:60
  TRACK 19 AUDIO
    TITLE "0:"
    INDEX 01 00:16:06
  TRACK 20 AUDIO
    TITLE "17:cjc020_9194"
    INDEX 01 00:16:65
  TRACK 21 AUDIO
    TITLE "0:"
    INDEX 01 00:18:17
  TRACK 22 AUDIO
    TITLE "16:cjc020_9195"
    INDEX 01 00:18:29
  TRACK 23 AUDIO
    TITLE "0:"
    INDEX 01 00:19:26
  TRACK 24 AUDIO
    TITLE "17:cjc020_9196"
    INDEX 01 00:20:12
  TRACK 25 AUDIO
    TITLE "0:"
    INDEX 01 00:21:06
  TRACK 26 AUDIO
    TITLE "16:cjc020_9197"
    INDEX 01 00:21:13
  TRACK 27 AUDIO
    TITLE "0:"
    INDEX 01 00:22:30
  TRACK 28 AUDIO
    TITLE "17:cjc020_9198"
    INDEX 01 00:23:12
  TRACK 29 AUDIO
    TITLE "0:"
    INDEX 01 00:24:20
  TRACK 30 AUDIO
    TITLE "16:cjc020_9199"
    INDEX 01 00:24:25
  TRACK 31 AUDIO
    TITLE "0:"
    INDEX 01 00:25:33
  TRACK 32 AUDIO
    TITLE "17:cjc020_9200"
    INDEX 01 00:26:18
  TRACK 33 AUDIO
    TITLE "0:"
    INDEX 01 00:27:41
  TRACK 34 AUDIO
    TITLE "16:cjc020_9201"
    INDEX 01 00:27:45
  TRACK 35 AUDIO
    TITLE "0:"
    INDEX 01 00:28:45
  TRACK 36 AUDIO
    TITLE "17:cjc020_9202"
    INDEX 01 00:29:33
  TRACK 37 AUDIO
    TITLE "0:"
    INDEX 01 00:30:42
  TRACK 38 AUDIO
    TITLE "16:cjc020_9203"
    INDEX 01 00:30:48
  TRACK 39 AUDIO
    TITLE "0:"
    INDEX 01 00:31:57
  TRACK 40 AUDIO
    TITLE "17:cjc020_9204"
    INDEX 01 00:32:45
  TRACK 41 AUDIO
    TITLE "0:"
    INDEX 01 00:33:56
  TRACK 42 AUDIO
    TITLE "16:cjc020_9205"
    INDEX 01 00:33:60
  TRACK 43 AUDIO
    TITLE "0:"
    INDEX 01 00:34:59
  TRACK 44 AUDIO
    TITLE "17:cjc020_9206"
    INDEX 01 00:35:43
  TRACK 45 AUDIO
    TITLE "0:"
    INDEX 01 00:36:66
  TRACK 46 AUDIO
    TITLE "16:cjc020_9207"
    INDEX 01 00:36:72
  TRACK 47 AUDIO
    TITLE "0:"
    INDEX 01 00:37:59
  TRACK 48 AUDIO
    TITLE "17:cjc020_9208"
    INDEX 01 00:38:53
  TRACK 49 AUDIO
    TITLE "0:"
    INDEX 01 00:39:51
  TRACK 50 AUDIO
    TITLE "16:cjc020_9209"
    INDEX 01 00:39:56
  TRACK 51 AUDIO
    TITLE "0:"
    INDEX 01 00:40:48
  TRACK 52 AUDIO
    TITLE "17:cjc020_9210"
    INDEX 01 00:41:32
  TRACK 53 AUDIO
    TITLE "0:"
    INDEX 01 00:42:25
  TRACK 54 AUDIO
    TITLE "16:cjc020_9211"
    INDEX 01 00:42:31
  TRACK 55 AUDIO
    TITLE "0:"
    INDEX 01 00:43:29
  TRACK 56 AUDIO
    TITLE "17:cjc020_9212"
    INDEX 01 00:44:14
  TRACK 57 AUDIO
    TITLE "0:"
    INDEX 01 00:45:20
  TRACK 58 AUDIO
    TITLE "16:cjc020_9213"
    INDEX 01 00:45:30
  TRACK 59 AUDIO
    TITLE "0:"
    INDEX 01 00:46:33
  TRACK 60 AUDIO
    TITLE "17:cjc020_9214"
    INDEX 01 00:47:19
  TRACK 61 AUDIO
    TITLE "0:"
    INDEX 01 00:48:18
  TRACK 62 AUDIO
    TITLE "16:cjc020_9215"
    INDEX 01 00:48:20
  TRACK 63 AUDIO
    TITLE "0:"
    INDEX 01 00:49:29
  TRACK 64 AUDIO
    TITLE "17:cjc020_9216"
    INDEX 01 00:50:13
  TRACK 65 AUDIO
    TITLE "0:"
    INDEX 01 00:51:50
  TRACK 66 AUDIO
    TITLE "16:cjc020_9217"
    INDEX 01 00:51:56
  TRACK 67 AUDIO
    TITLE "0:"
    INDEX 01 00:52:57
  TRACK 68 AUDIO
    TITLE "17:cjc020_9218"
    INDEX 01 00:53:41
  TRACK 69 AUDIO
    TITLE "0:"
    INDEX 01 00:54:42
  TRACK 70 AUDIO
    TITLE "16:cjc020_9219"
    INDEX 01 00:54:46
  TRACK 71 AUDIO
    TITLE "0:"
    INDEX 01 00:55:55
